<svg width="32" height="32" viewBox="0 0 32 32" fill="none" xmlns="http://www.w3.org/2000/svg">
<path d="M17.74 29.998L16 28.998L20 21.998H26C26.5304 21.998 27.0391 21.7873 27.4142 21.4123C27.7893 21.0372 28 20.5285 28 19.998V7.99805C28 7.46761 27.7893 6.95891 27.4142 6.58383C27.0391 6.20876 26.5304 5.99805 26 5.99805H6C5.46957 5.99805 4.96086 6.20876 4.58579 6.58383C4.21071 6.95891 4 7.46761 4 7.99805V19.998C4 20.5285 4.21071 21.0372 4.58579 21.4123C4.96086 21.7873 5.46957 21.998 6 21.998H15V23.998H6C4.93913 23.998 3.92172 23.5766 3.17157 22.8265C2.42143 22.0763 2 21.0589 2 19.998V7.99805C2 6.93718 2.42143 5.91976 3.17157 5.16962C3.92172 4.41947 4.93913 3.99805 6 3.99805H26C27.0609 3.99805 28.0783 4.41947 28.8284 5.16962C29.5786 5.91976 30 6.93718 30 7.99805V19.998C30 21.0589 29.5786 22.0763 28.8284 22.8265C28.0783 23.5766 27.0609 23.998 26 23.998H21.16L17.74 29.998Z" fill="black"/>
<path d="M8 9.99805H24V11.998H8V9.99805ZM8 15.998H18V17.998H8V15.998Z" fill="black"/>
</svg>
