<svg width="270" height="356" viewBox="0 0 270 356" fill="none" xmlns="http://www.w3.org/2000/svg">
<rect width="270" height="356" rx="20" fill="white"/>
<rect x="0.5" y="0.5" width="269" height="355" rx="19.5" stroke="black" stroke-opacity="0.08"/>
<path d="M224 178C224 196.901 217.983 215.311 206.82 230.564C195.656 245.816 179.928 257.119 161.911 262.834C143.895 268.549 124.527 268.38 106.613 262.352C88.6992 256.323 73.1697 244.748 62.2744 229.303C51.3791 213.858 45.6838 195.346 46.0135 176.447C46.3433 157.549 52.6809 139.247 64.1083 124.191C75.5357 109.136 91.4595 98.1096 109.573 92.7096C127.686 87.3096 147.048 87.8163 164.854 94.1565" stroke="#F8E600" stroke-width="24.8951"/>
<path d="M135 89C153.901 89 172.311 95.0174 187.564 106.18C202.816 117.344 214.119 133.072 219.834 151.089C225.549 169.105 225.38 188.473 219.352 206.387C213.323 224.301 201.748 239.83 186.303 250.726C170.858 261.621 152.346 267.316 133.447 266.986C114.549 266.657 96.2467 260.319 81.1914 248.892C66.136 237.464 55.1096 221.54 49.7096 203.427C44.3096 185.314 44.8163 165.952 51.1565 148.146" stroke="#151402" stroke-width="24.8951"/>
<path d="M110.732 187.48V185.261C108.178 185.037 106.341 183.85 105.31 182.304L106.901 180.691C107.663 182.035 109.007 182.976 110.732 183.245V178.853L109.769 178.629C107.17 178.047 105.982 176.747 105.982 174.91C105.982 172.692 107.73 170.855 110.732 170.563V168.39H112.525V170.563C114.608 170.787 116.177 171.728 117.319 173.386L115.773 174.865C114.9 173.521 113.869 172.804 112.525 172.557V177.016L113.533 177.24C116.311 177.868 117.364 179.078 117.364 180.982C117.364 183.402 115.46 185.015 112.525 185.284V187.48H110.732ZM110.62 176.59L110.732 176.613V172.49C109.029 172.67 108.268 173.543 108.268 174.574C108.268 175.515 108.738 176.187 110.62 176.59ZM113.04 179.391L112.525 179.257V183.312C114.138 183.155 115.101 182.438 115.101 181.228C115.101 180.422 114.608 179.75 113.04 179.391ZM126.101 185.329V181.632H118.886V179.996C118.953 179.862 119.088 179.638 119.267 179.369L125.429 170.541H128.364V179.772H130.873V181.632H128.364V185.329H126.101ZM121.127 179.772H126.101V174.552C126.101 173.812 126.168 173.073 126.19 172.311H126.146C125.81 173.006 125.227 173.969 124.779 174.596L121.284 179.57C121.239 179.638 121.194 179.705 121.127 179.772ZM134.016 182.304C135.249 182.304 135.921 183.312 135.921 184.634C135.921 186.292 134.957 187.905 133.277 188.69L132.157 187.726C133.367 187.3 134.218 186.359 134.487 185.418L134.397 185.373C134.263 185.463 134.084 185.53 133.725 185.53C133.098 185.53 132.313 185.037 132.313 183.984C132.313 182.998 133.098 182.304 134.016 182.304ZM142.854 185.553C140.232 185.553 138.597 184.388 137.611 182.237L139.852 181.072C140.277 182.528 141.106 183.514 142.899 183.514C144.758 183.514 145.879 182.438 145.879 180.646C145.879 178.786 144.848 177.8 143.011 177.8C141.689 177.8 140.636 178.204 140.008 179.078L138.037 178.697L138.933 170.541H147.537V172.602H140.837L140.3 176.77L140.255 177.016H140.3C140.972 176.277 142.07 175.829 143.571 175.829C146.416 175.829 148.231 177.733 148.231 180.511C148.231 183.76 145.923 185.553 142.854 185.553ZM155.827 185.553C152.265 185.553 150.136 182.909 150.136 177.935C150.136 172.961 152.265 170.317 155.827 170.317C159.39 170.317 161.541 172.961 161.541 177.935C161.541 182.909 159.39 185.553 155.827 185.553ZM155.827 183.514C157.978 183.514 159.099 181.654 159.099 177.935C159.099 174.215 157.978 172.356 155.827 172.356C153.677 172.356 152.579 174.215 152.579 177.935C152.579 181.654 153.677 183.514 155.827 183.514ZM169.224 185.553C165.662 185.553 163.533 182.909 163.533 177.935C163.533 172.961 165.662 170.317 169.224 170.317C172.787 170.317 174.938 172.961 174.938 177.935C174.938 182.909 172.787 185.553 169.224 185.553ZM169.224 183.514C171.375 183.514 172.496 181.654 172.496 177.935C172.496 174.215 171.375 172.356 169.224 172.356C167.073 172.356 165.976 174.215 165.976 177.935C165.976 181.654 167.073 183.514 169.224 183.514Z" fill="black"/>
</svg>
