<svg width="32" height="28" viewBox="0 0 32 28" fill="none" xmlns="http://www.w3.org/2000/svg">
<path d="M27.7412 22.5767C28.7329 23.0624 29.5526 23.7455 30.2003 24.6259C30.8479 25.5064 31.2578 26.4981 31.4298 27.6011H29.7601C29.6488 27.0243 29.4413 26.488 29.1377 25.9921C28.8341 25.4962 28.4648 25.0712 28.0296 24.717C27.5945 24.3628 27.1037 24.0795 26.5572 23.867C26.0107 23.6545 25.444 23.5533 24.8571 23.5634C24.26 23.5634 23.6933 23.6646 23.157 23.867C22.6206 24.0694 22.1298 24.3477 21.6846 24.7018C21.2393 25.056 20.8699 25.4861 20.5765 25.9921C20.283 26.4981 20.0755 27.0344 19.9541 27.6011H18.2843C18.4463 26.5082 18.851 25.5215 19.4987 24.6411C20.1464 23.7607 20.9711 23.0726 21.973 22.5767C21.3962 22.1213 20.9509 21.5698 20.6372 20.9221C20.3235 20.2745 20.1615 19.5863 20.1514 18.8577C20.1514 18.4023 20.2121 17.9621 20.3336 17.5371C20.455 17.1121 20.6372 16.7123 20.88 16.3379C21.1229 15.9635 21.4113 15.6295 21.7453 15.3361C22.0792 15.0426 22.4537 14.7947 22.8686 14.5923C22.5953 14.1976 22.2816 13.8485 21.9274 13.5449C21.5732 13.2413 21.1887 12.9731 20.7738 12.7404C20.3589 12.5076 19.9237 12.3406 19.4683 12.2394C19.013 12.1382 18.5424 12.0775 18.0567 12.0573C17.2471 12.0573 16.4729 12.2141 15.7342 12.5279C14.9954 12.8416 14.3528 13.302 13.8064 13.9092C14.0493 14.567 14.1707 15.245 14.1707 15.9432C14.1707 16.8743 13.9632 17.7496 13.5483 18.5693C13.1334 19.389 12.5515 20.0771 11.8027 20.6337C12.4605 20.9677 13.0525 21.3775 13.5787 21.8633C14.1049 22.349 14.5603 22.8955 14.9448 23.5027C15.3294 24.1098 15.6178 24.7575 15.8101 25.4456C16.0024 26.1338 16.1036 26.8523 16.1137 27.6011H14.1707C14.1707 26.8017 14.0189 26.0478 13.7153 25.3394C13.4117 24.631 12.9968 24.0137 12.4706 23.4875C11.9444 22.9613 11.322 22.5413 10.6035 22.2276C9.885 21.9139 9.13108 21.7621 8.34175 21.7722C7.53217 21.7722 6.77826 21.924 6.08 22.2276C5.38174 22.5312 4.76444 22.9461 4.22809 23.4723C3.69175 23.9985 3.27178 24.6209 2.96819 25.3394C2.6646 26.0579 2.51281 26.8118 2.51281 27.6011H0.569824C0.569824 26.8624 0.671021 26.149 0.873415 25.4608C1.07581 24.7727 1.36422 24.125 1.73865 23.5178C2.11308 22.9107 2.5634 22.3642 3.08963 21.8784C3.61585 21.3927 4.21291 20.9778 4.88081 20.6337C4.13196 20.0771 3.55007 19.389 3.13517 18.5693C2.72026 17.7496 2.51281 16.8743 2.51281 15.9432C2.51281 15.1438 2.6646 14.3899 2.96819 13.6815C3.27178 12.9731 3.68669 12.3558 4.21291 11.8296C4.73914 11.3034 5.35644 10.8834 6.06482 10.5697C6.7732 10.256 7.53217 10.1042 8.34175 10.1143C9.20192 10.1143 10.0166 10.2965 10.7857 10.6608C11.5548 11.0251 12.2226 11.5311 12.7894 12.1787C13.0525 11.9257 13.3358 11.698 13.6394 11.4956C13.943 11.2932 14.2618 11.101 14.5957 10.9188C13.8469 10.3622 13.265 9.6741 12.8501 8.8544C12.4352 8.03471 12.2277 7.15935 12.2277 6.22834C12.2277 5.42889 12.3795 4.67497 12.6831 3.96659C12.9867 3.25821 13.4016 2.64091 13.9278 2.11469C14.454 1.58846 15.0713 1.1685 15.7797 0.854786C16.4881 0.541076 17.2471 0.38928 18.0567 0.3994C18.8561 0.3994 19.61 0.551196 20.3184 0.854786C21.0268 1.15838 21.6441 1.57328 22.1703 2.09951C22.6965 2.62573 23.1165 3.24809 23.4302 3.96659C23.7439 4.68509 23.8957 5.43901 23.8856 6.22834C23.8856 7.15935 23.6781 8.03471 23.2632 8.8544C22.8483 9.6741 22.2664 10.3622 21.5176 10.9188C22.226 11.2932 22.8635 11.7486 23.4302 12.285C23.9969 12.8213 24.4776 13.4437 24.8723 14.1521C25.5199 14.1521 26.1271 14.2735 26.6938 14.5164C27.2605 14.7592 27.7614 15.0983 28.1966 15.5334C28.6317 15.9685 28.9657 16.4644 29.1984 17.021C29.4312 17.5776 29.5526 18.1898 29.5627 18.8577C29.5627 19.5863 29.4059 20.2745 29.0922 20.9221C28.7785 21.5698 28.3281 22.1213 27.7412 22.5767ZM8.34175 19.8292C8.87809 19.8292 9.37902 19.728 9.84452 19.5256C10.31 19.3232 10.7249 19.0449 11.0892 18.6907C11.4536 18.3366 11.7318 17.9267 11.9241 17.4612C12.1164 16.9957 12.2176 16.4897 12.2277 15.9432C12.2277 15.4069 12.1265 14.906 11.9241 14.4405C11.7217 13.975 11.4434 13.5601 11.0892 13.1958C10.7351 12.8314 10.3252 12.5531 9.8597 12.3609C9.3942 12.1686 8.88821 12.0674 8.34175 12.0573C7.8054 12.0573 7.30448 12.1585 6.83897 12.3609C6.37347 12.5633 5.95856 12.8416 5.59425 13.1958C5.22994 13.5499 4.95165 13.9598 4.75938 14.4253C4.5671 14.8908 4.46591 15.3968 4.45579 15.9432C4.45579 16.4796 4.55698 16.9805 4.75938 17.446C4.96177 17.9115 5.24006 18.3264 5.59425 18.6907C5.94844 19.0551 6.35829 19.3333 6.82379 19.5256C7.2893 19.7179 7.79528 19.8191 8.34175 19.8292ZM14.1707 6.22834C14.1707 6.76469 14.2719 7.26561 14.4743 7.73112C14.6767 8.19662 14.955 8.61153 15.3092 8.97584C15.6633 9.34015 16.0732 9.61844 16.5387 9.81071C17.0042 10.003 17.5102 10.1042 18.0567 10.1143C18.593 10.1143 19.0939 10.0131 19.5594 9.81071C20.0249 9.60832 20.4398 9.33003 20.8041 8.97584C21.1685 8.62165 21.4467 8.2118 21.639 7.7463C21.8313 7.28079 21.9325 6.77481 21.9426 6.22834C21.9426 5.692 21.8414 5.19107 21.639 4.72557C21.4366 4.26006 21.1583 3.84516 20.8041 3.48085C20.45 3.11654 20.0401 2.83825 19.5746 2.64597C19.1091 2.4537 18.6031 2.3525 18.0567 2.34238C17.5203 2.34238 17.0194 2.44358 16.5539 2.64597C16.0884 2.84837 15.6735 3.12666 15.3092 3.48085C14.9448 3.83504 14.6666 4.24488 14.4743 4.71039C14.282 5.17589 14.1808 5.68188 14.1707 6.22834ZM24.8571 15.7915C24.4321 15.7915 24.0374 15.8724 23.6731 16.0343C23.3088 16.1962 22.9849 16.4138 22.7016 16.687C22.4182 16.9603 22.1956 17.2841 22.0337 17.6585C21.8718 18.033 21.7908 18.4327 21.7908 18.8577C21.7908 19.2827 21.8718 19.6774 22.0337 20.0417C22.1956 20.406 22.4132 20.7299 22.6864 21.0132C22.9596 21.2966 23.2835 21.5192 23.6579 21.6811C24.0323 21.843 24.4321 21.924 24.8571 21.924C25.2821 21.924 25.6768 21.843 26.0411 21.6811C26.4054 21.5192 26.7292 21.3016 27.0126 21.0284C27.2959 20.7552 27.5186 20.4313 27.6805 20.0569C27.8424 19.6825 27.9234 19.2827 27.9234 18.8577C27.9234 18.4327 27.8424 18.038 27.6805 17.6737C27.5186 17.3094 27.301 16.9856 27.0278 16.7022C26.7545 16.4189 26.4307 16.1962 26.0563 16.0343C25.6818 15.8724 25.2821 15.7915 24.8571 15.7915Z" fill="black"/>
</svg>
