<svg width="28" height="28" viewBox="0 0 28 28" fill="none" xmlns="http://www.w3.org/2000/svg">
<path d="M0.390137 3.79251C0.390137 2.89012 0.748613 2.02468 1.38671 1.38658C2.0248 0.748491 2.89024 0.390015 3.79264 0.390015H18.1587C19.0611 0.390015 19.9266 0.748491 20.5647 1.38658C21.2028 2.02468 21.5612 2.89012 21.5612 3.79251V17.0245H27.6101V22.6953C27.6101 23.9988 27.0923 25.2488 26.1706 26.1705C25.249 27.0922 23.9989 27.61 22.6954 27.61H5.30486C4.00139 27.61 2.75131 27.0922 1.82963 26.1705C0.907936 25.2488 0.390137 23.9988 0.390137 22.6953V3.79251ZM21.5612 25.3417H22.6954C23.3973 25.3417 24.0704 25.0629 24.5667 24.5666C25.063 24.0703 25.3418 23.3972 25.3418 22.6953V19.2928H21.5612V25.3417ZM3.79264 2.65835C3.49184 2.65835 3.20336 2.77784 2.99066 2.99054C2.77796 3.20323 2.65847 3.49171 2.65847 3.79251V22.6953C2.65847 24.1561 3.84405 25.3417 5.30486 25.3417H19.2929V3.79251C19.2929 3.49171 19.1734 3.20323 18.9607 2.99054C18.748 2.77784 18.4595 2.65835 18.1587 2.65835H3.79264ZM6.81708 6.4389C6.51628 6.4389 6.2278 6.5584 6.0151 6.77109C5.80241 6.98379 5.68291 7.27227 5.68291 7.57307C5.68291 7.87387 5.80241 8.16235 6.0151 8.37505C6.2278 8.58774 6.51628 8.70724 6.81708 8.70724H15.1343C15.4351 8.70724 15.7236 8.58774 15.9363 8.37505C16.149 8.16235 16.2685 7.87387 16.2685 7.57307C16.2685 7.27227 16.149 6.98379 15.9363 6.77109C15.7236 6.5584 15.4351 6.4389 15.1343 6.4389H6.81708ZM5.68291 13.622C5.68291 13.3212 5.80241 13.0327 6.0151 12.82C6.2278 12.6073 6.51628 12.4878 6.81708 12.4878H15.1343C15.4351 12.4878 15.7236 12.6073 15.9363 12.82C16.149 13.0327 16.2685 13.3212 16.2685 13.622C16.2685 13.9228 16.149 14.2112 15.9363 14.4239C15.7236 14.6366 15.4351 14.7561 15.1343 14.7561H6.81708C6.51628 14.7561 6.2278 14.6366 6.0151 14.4239C5.80241 14.2112 5.68291 13.9228 5.68291 13.622ZM6.81708 18.5367C6.51628 18.5367 6.2278 18.6562 6.0151 18.8689C5.80241 19.0816 5.68291 19.37 5.68291 19.6708C5.68291 19.9716 5.80241 20.2601 6.0151 20.4728C6.2278 20.6855 6.51628 20.805 6.81708 20.805H11.3537C11.6545 20.805 11.943 20.6855 12.1557 20.4728C12.3684 20.2601 12.4879 19.9716 12.4879 19.6708C12.4879 19.37 12.3684 19.0816 12.1557 18.8689C11.943 18.6562 11.6545 18.5367 11.3537 18.5367H6.81708Z" fill="black"/>
</svg>
